{"title":"Wall Street 1987 DVDrip Englis Klam","uid":6571097,"size":1774167002,"categoryP":"video","categoryS":"movies","magnet":"?xt=urn:btih:a60626dbc2e28705202b3c9e3dd6e75ce51843dc&amp;dn=Wall+Street+1987+DVDrip+Englis+Klam&amp;tr=udp%3A%2F%2Ftracker.openbittorrent.com%3A80&amp;tr=udp%3A%2F%2Fopen.demonii.com%3A1337&amp;tr=udp%3A%2F%2Ftracker.coppersurfer.tk%3A6969&amp;tr=udp%3A%2F%2Fexodus.desync.com%3A6969","seeders":0,"leechers":1,"uploader":"Klambake","files":-1,"time":1311973982,"description":"With: Michael Douglas, Charlie Sheen and Martin Sheen\n\nBud Fox is een aandelenhandelaar op Wall Street met een grote drang om de top te bereiken. Zijn vrije tijd gebruikt hij om in contact te komen met de machtige en succesvolle Gordon Gekko. Wanneer hij hem eindelijk ontmoet wordt Fox meegetrokken in de wereld van yuppies, duistere deals, geld en vrouwen.\n\nA young and impatient stockbroker is willing to do anything to get to the top, including trading on illegal inside information taken through a ruthless and greedy corporate raider who takes the youth under his wing.\n\n------------------ Dutch Friends ------------------\nYou can find my Friends at: http://www.Film-Test.nl \n------ They got my dutchs subs ---- and more ------\n\nGeneral:\n\nComplete name                    : Wall Street\\Wall Street.avi\nFormat                           : AVI\nFormat/Info                      : Audio Video Interleave\nFile size                        : 1.65 GiB\nDuration                         : 2h 0mn\nOverall bit rate                 : 1 961 Kbps\n\nVideo:\n\nFormat                           : MPEG-4 Visual\nFormat profile                   : Simple@L3\nFormat settings, BVOP            : No\nFormat settings, QPel            : No\nFormat settings, GMC             : No warppoints\nFormat settings, Matrix          : Default (H.263)\nCodec ID                         : XVID\nCodec ID/Hint                    : XviD\nDuration                         : 2h 0mn\nBit rate                         : 1 566 Kbps\nWidth                            : 652 pixels\nHeight                           : 352 pixels\nDisplay aspect ratio             : 1.852\nFrame rate                       : 25.000 fps\nColor space                      : YUV\nChroma subsampling               : 4:2:0\nBit depth                        : 8 bits\nScan type                        : Progressive\nBits/(Pixel*Frame)               : 0.273\nStream size                      : 1.32 GiB (80%)\nWriting library                  : XviD 1.1.2 (UTC 2006-11-01)\n\nAudio:\n\nFormat                           : AC-3\nFormat/Info                      : Audio Coding 3\nMode extension                   : CM (complete main)\nCodec ID                         : 2000\nDuration                         : 2h 0mn\nBit rate mode                    : Constant\nBit rate                         : 384 Kbps\nChannel(s)                       : 6 channels\nChannel positions                : Front: L C R, Side: L R, LFE\nSampling rate                    : 48.0 KHz\nBit depth                        : 16 bits\nStream size                      : 331 MiB (20%)\nAlignment                        : Aligned on interleaves\nInterleave, duration             : 32 ms (0.80 video frame)\nInterleave, preload duration     : 640 ms\n\n","torrent":{"xt":"urn:btih:a60626dbc2e28705202b3c9e3dd6e75ce51843dc","amp;dn":"Wall+Street+1987+DVDrip+Englis+Klam","amp;tr":["udp%3A%2F%2Ftracker.openbittorrent.com%3A80","udp%3A%2F%2Fopen.demonii.com%3A1337","udp%3A%2F%2Ftracker.coppersurfer.tk%3A6969","udp%3A%2F%2Fexodus.desync.com%3A6969"],"infoHash":"a60626dbc2e28705202b3c9e3dd6e75ce51843dc","infoHashBuffer":{"type":"Buffer","data":[166,6,38,219,194,226,135,5,32,43,60,158,61,214,231,92,229,24,67,220]},"announce":[],"urlList":[]}}